<svg xmlns="http://www.w3.org/2000/svg" width="62" height="61" viewBox="0 0 62 61" fill="none">
<path d="M60.8 34.2677C58.6 50.8677 43.3 62.4677 26.8 60.2677C10.3 58.0677 -1.39997 42.7677 0.800026 26.2677C3.00003 9.66768 18.3 -1.93232 34.8 0.267679C51.4 2.46768 63.1 17.7677 60.8 34.2677Z" fill="#E30613"/>
<path d="M10.7 27.9676V29.9676L12.6 29.4676V31.3676L10.7 31.8676L10.8 34.4676L8.69995 35.0676L8.59998 32.4676L7 32.9676L7.09998 35.5676L5 36.1676L4.90002 33.5676L3 34.0676V32.1676L4.90002 31.6676V29.6676L3 30.1676V28.2676L4.90002 27.7676L4.80005 25.2676L6.90002 24.6676V27.1676L8.5 26.6676V24.1676L10.6 23.5676V26.0676L12.5 25.5676V27.4676L10.7 27.9676ZM8.59998 28.5676L7 29.0676V31.0676L8.59998 30.5676V28.5676Z" fill="white"/>
<path d="M26.6272 18.912L11.1455 23.3298L15.5908 38.9078L31.0725 34.4899L26.6272 18.912Z" fill="white"/>
<path d="M52.4656 18.7393L13.04 29.9856L15.591 38.9285L55.0166 27.6822L52.4656 18.7393Z" fill="white"/>
<path d="M18.7 24.6677L17.2 25.0677L18.3 28.7677L16.6 29.2677L15.6 25.5677L14.1 25.9677L13.7 24.6677L18.3 23.3677L18.7 24.6677Z" fill="black"/>
<path d="M23.2 24.0677C23.6 24.2677 23.9 24.5677 24.1 25.1677C24.3 25.7677 24.2 26.2677 23.9 26.6677C23.6 27.0677 23.1 27.3677 22.4 27.5677L19.9 28.2677L18.5 23.2677L20.2 22.7677L20.6 24.2677L21.6 23.9677C22.3 23.8677 22.8 23.8677 23.2 24.0677ZM22.4 26.1677C22.5 26.0677 22.5 25.8677 22.4 25.6677C22.3 25.3677 22.1 25.2677 21.7 25.3677L21 25.5677L21.3 26.6677L22 26.4677C22.1 26.3677 22.3 26.2677 22.4 26.1677ZM23.6 21.8677L25.3 21.3677L26.7 26.3677L25 26.8677L23.6 21.8677Z" fill="black"/>
<path d="M18.4 35.6676C17.9 35.5676 17.5 35.3676 17.1 35.0676C16.7 34.7676 16.5 34.3676 16.4 33.8676C16.3 33.3676 16.2 32.8676 16.4 32.3676C16.5 31.8676 16.8 31.4676 17.1 31.1676C17.4 30.8676 17.9 30.5676 18.4 30.4676C18.9 30.3676 19.3 30.2676 19.8 30.3676C20.2 30.4676 20.6 30.5676 21 30.8676L20.1999 32.1676C19.7999 31.8676 19.4 31.7676 18.9 31.8676C18.5 31.9676 18.3 32.1676 18.1 32.4676C17.9 32.7676 17.9 33.0676 18 33.4676C18.1 33.8676 18.3 34.1676 18.6 34.2676C18.9 34.4676 19.2 34.4676 19.5 34.3676C19.9 34.2676 20.2 33.9676 20.4 33.4676L21.6999 34.0676C21.4999 34.4676 21.3 34.7676 21 35.0676C20.7 35.3676 20.3 35.5676 19.8 35.6676C19.4 35.7676 18.9 35.7676 18.4 35.6676Z" fill="black"/>
<path d="M20.9 29.8677L22.5 29.3677L23.3 31.9677L24.2 28.8677L25.8 28.3677L27.3 33.3677L25.6 33.8677L24.9 31.2677L23.9 34.3677L22.3 34.8677L20.9 29.8677Z" fill="black"/>
<path d="M31.2 26.8677L32.6 31.8677L30.9 32.3677L29.8 28.6677L28.7 28.9677L28.9 29.5677C29.1 30.2677 29.2 30.8677 29.2 31.3677C29.2 31.8677 29.2 32.2677 29 32.5677C28.8 32.8677 28.5 33.0677 28.1 33.2677C27.9 33.3677 27.6 33.3677 27.4 33.3677L27.1 31.9677C27.2 31.9677 27.2 31.9677 27.3 31.9677C27.5 31.8677 27.6 31.7677 27.6 31.6677C27.7 31.4677 27.7 31.2677 27.6 31.0677C27.6 30.8677 27.5 30.4677 27.4 30.0677L26.9 28.0677L31.2 26.8677Z" fill="black"/>
<path d="M36.4 27.4677C36.8 27.6677 37.1 27.9677 37.3 28.5677C37.5 29.1677 37.4 29.6677 37.1 30.0677C36.8 30.4677 36.3 30.7677 35.6 30.9677L33.1 31.6677L31.7 26.6677L33.4 26.1677L33.8 27.6677L34.8 27.3677C35.5 27.2677 36 27.2677 36.4 27.4677ZM35.6 29.5677C35.7 29.4677 35.7 29.2677 35.6 29.0677C35.5 28.7677 35.3 28.6677 34.9 28.7677L34.2 28.9677L34.5 30.0677L35.2 29.8677C35.4 29.7677 35.5 29.7677 35.6 29.5677Z" fill="black"/>
<path d="M41.5 23.9678L43 28.9678L41.3 29.3678L40.8 27.5678L39.2 27.9678L39.7 29.8678L38 30.3678L36.6 25.3678L38.3 24.8678L38.8 26.6678L40.4 26.1678L39.9 24.3678L41.5 23.9678Z" fill="black"/>
<path d="M47.3 26.2677L47.6 27.5677L43.5 28.7677L42.1 23.7677L46.1 22.6677L46.5 23.8677L44.1 24.5677L44.3 25.1677L46.4 24.5677L46.7 25.7677L44.6 26.3677L44.8 27.0677L47.3 26.2677Z" fill="black"/>
<path d="M51.8 25.0677L52.1 26.2677L48 27.4677L46.6 22.4677L50.6 21.3677L51 22.5677L48.6 23.2677L48.7 23.8677L50.8 23.2677L51.2 24.4677L49.1 25.0677L49.3 25.7677L51.8 25.0677Z" fill="black"/>
<path d="M54.7 29.8676L55.9 29.5676L57.2 34.7676L56.4 34.9676L54.7 29.8676ZM56.9 37.1676C56.7 37.0676 56.6 36.9676 56.6 36.7676C56.5 36.5676 56.6 36.3676 56.7 36.2676C56.8 36.0676 56.9 35.9676 57.1 35.9676C57.3 35.8676 57.5 35.9676 57.6 36.0676C57.8 36.1676 57.9 36.2676 57.9 36.4676C58 36.6676 57.9 36.8676 57.8 36.9676C57.7 37.1676 57.6 37.2676 57.4 37.2676C57.3 37.2676 57.1 37.1676 56.9 37.1676Z" fill="white"/>
<path d="M29.9 40.2678L29.4 38.6678L29 40.2678L28.6 40.3678L27.4 39.2678L27.9 40.8678L27.1 41.0678L26.2 37.9678L26.9 37.7678L28.5 39.2678L29.1 37.1678L29.8 36.9678L30.7 40.0678L29.9 40.2678Z" fill="white"/>
<path d="M30.4 36.7678L31.3 36.5678L31.8 38.3678L32.6 36.1678L33.4 35.9678L34.3 39.0678L33.4 39.2678L32.9 37.4678L32.2 39.6678L31.3 39.8678L30.4 36.7678Z" fill="white"/>
<path d="M37 34.8677L37.9 37.9677L37 38.2677L36.7 37.0677L35.5 37.3677L35.8 38.5677L35 38.8677L34.1 35.7677L35 35.4677L35.3 36.6677L36.5 36.3677L36.1 35.1677L37 34.8677Z" fill="white"/>
<path d="M40.5 35.8677C40.6 35.9677 40.7 36.0677 40.8 36.2677C40.9 36.4677 40.8 36.6677 40.7 36.8677C40.6 37.0677 40.5 37.1677 40.3 37.3677C40.1 37.4677 39.9 37.5677 39.6 37.6677C39.4 37.7677 39.2 37.7677 38.9 37.7677C38.7 37.7677 38.4 37.7677 38.2 37.7677L38.3 37.0677C38.5 37.0677 38.6 37.0677 38.8 37.0677C39 37.0677 39.1 37.0677 39.3 36.9677C39.5 36.8677 39.6 36.8677 39.7 36.7677C39.8 36.6677 39.8 36.5677 39.8 36.4677C39.8 36.3677 39.7 36.3677 39.6 36.2677C39.5 36.2677 39.4 36.2677 39.3 36.2677L38.5 36.4677L38.3 35.8677L39 35.6677C39.1 35.6677 39.2 35.5677 39.3 35.5677C39.4 35.4677 39.4 35.4677 39.3 35.3677C39.3 35.2677 39.2 35.1677 39.1 35.1677C39 35.1677 38.8 35.1677 38.7 35.1677C38.6 35.1677 38.4 35.2677 38.3 35.3677C38.2 35.4677 38 35.5677 37.9 35.6677L37.5 35.0677C37.8 34.7677 38.1 34.6677 38.5 34.4677C38.8 34.3677 39 34.3677 39.2 34.3677C39.4 34.3677 39.6 34.4677 39.8 34.5677C40 34.6677 40.1 34.7677 40.1 34.9677C40.1 35.0677 40.1 35.2677 40.1 35.3677C40.1 35.4677 40 35.6677 39.9 35.7677C40.2 35.6677 40.4 35.7677 40.5 35.8677Z" fill="white"/>
<path d="M44.6 35.3676L45 36.6676L44.2 36.8676L44 36.2676L42 36.8676L42.2 37.4676L41.4 37.6676L41 36.3676H41.1C41.3 36.2676 41.4 36.1676 41.4 35.8676C41.4 35.5676 41.3 35.2676 41.2 34.7676L41 33.7676L43.5 33.0676L44.2 35.4676L44.6 35.3676ZM42.2 35.4676C42.2 35.6676 42.2 35.8676 42.2 36.0676L43.4 35.7676L42.9 34.0676L42 34.3676L42.1 34.6676C42.1 34.8676 42.2 35.1676 42.2 35.4676Z" fill="white"/>
<path d="M46.6 32.3676C46.8 32.3676 47 32.4676 47.2 32.6676C47.4 32.7676 47.5 32.9676 47.5 33.2676C47.6 33.4676 47.6 33.7676 47.5 33.9676C47.4 34.1676 47.3 34.3676 47.1 34.4676C46.9 34.6676 46.7 34.7676 46.4 34.7676L45.9 34.9676L46.1 35.7676L45.2 35.9676L44.3 32.8676L45.7 32.4676C46.1 32.3676 46.3 32.2676 46.6 32.3676ZM46.6 33.7676C46.7 33.6676 46.7 33.5676 46.6 33.3676C46.6 33.2676 46.5 33.1676 46.4 33.0676C46.3 32.9676 46.1 32.9676 46 33.0676L45.5 33.1676L45.8 34.0676L46.3 33.9676C46.4 33.9676 46.5 33.8676 46.6 33.7676Z" fill="white"/>
<path d="M50.3 33.8676L49 34.2676L48.9 34.9676L48 35.2676L48.5 31.7676L49.4 31.5676L51.7 34.2676L50.8 34.5676L50.3 33.8676ZM49.8 33.2676L49.1 32.3676L49 33.4676L49.8 33.2676Z" fill="white"/>
<path d="M54.2 31.8676C54.3 31.9676 54.4 32.0676 54.5 32.2676C54.6 32.5676 54.5 32.7676 54.4 32.9676C54.2 33.1676 54 33.3676 53.6 33.4676L52 33.9676L51.1 30.8676L52.6 30.4676C53 30.3676 53.3 30.3676 53.5 30.4676C53.7 30.5676 53.9 30.6676 54 30.9676C54 31.1676 54 31.2676 54 31.3676C54 31.4676 53.9 31.6676 53.8 31.7676C53.9 31.7676 54.1 31.7676 54.2 31.8676ZM52.3 31.8676L52.9 31.6676C53.1 31.5676 53.2 31.4676 53.2 31.2676C53.1 31.0676 53 30.9676 52.7 31.0676L52.1 31.2676L52.3 31.8676ZM53.6 32.4676C53.5 32.2676 53.4 32.1676 53.1 32.2676L52.4 32.4676L52.6 33.0676L53.3 32.8676C53.6 32.8676 53.7 32.6676 53.6 32.4676Z" fill="white"/>
<path d="M24.8 43.0676L24.2 45.8676C24.1 46.1676 24 46.3676 23.9 46.5676C23.7 46.7676 23.5 46.8676 23.3 46.9676C23.1 46.9676 22.9 47.0676 22.7 46.9676V46.2676C22.8 46.2676 22.9 46.2676 23 46.2676C23.1 46.2676 23.2 46.1676 23.2 46.1676C23.3 46.0676 23.3 46.0676 23.3 45.9676L21.5 44.0676L22.4 43.7676L23.6 45.0676L23.9 43.3676L24.8 43.0676Z" fill="white"/>
<path d="M27.8 42.9676L26.8 43.2676L27.5 45.6676L26.6 45.8676L25.9 43.4676L25 43.7676L24.8 43.0676L27.6 42.2676L27.8 42.9676Z" fill="white"/>
<path d="M31.1 43.1676C31.2 43.2676 31.3 43.3676 31.4 43.5676C31.5 43.8676 31.4 44.0676 31.3 44.2676C31.1 44.4676 30.9 44.6676 30.5 44.7676L28.9 45.2676L28 42.1676L29.5 41.7676C29.9 41.6676 30.2 41.6676 30.4 41.7676C30.6 41.8676 30.8 41.9676 30.9 42.2676C30.9 42.4676 30.9 42.5676 30.9 42.6676C30.9 42.7676 30.8 42.9676 30.7 43.0676C30.8 43.0676 31 43.0676 31.1 43.1676ZM29.2 43.1676L29.8 42.9676C30 42.8676 30.1 42.7676 30.1 42.5676C30 42.3676 29.9 42.2676 29.6 42.3676L29 42.5676L29.2 43.1676ZM30.5 43.7676C30.4 43.5676 30.3 43.4676 30 43.5676L29.3 43.7676L29.5 44.3676L30.2 44.1676C30.5 44.1676 30.6 43.9676 30.5 43.7676Z" fill="white"/>
<path d="M34.4 42.9676L34.6 43.6676L32.1 44.3676L31.3 41.2676L33.7 40.5676L33.9 41.2676L32.3 41.6676L32.5 42.1676L33.8 41.7676L34 42.4676L32.7 42.8676L32.8 43.3676L34.4 42.9676Z" fill="white"/>
<path d="M36.4 39.9678C36.6 39.9678 36.8 40.0678 37 40.2678C37.2 40.3678 37.3 40.5678 37.3 40.8678C37.4 41.0678 37.4 41.3678 37.3 41.5678C37.2 41.7678 37.1 41.9678 36.9 42.0678C36.7 42.2678 36.5 42.3678 36.2 42.3678L35.7 42.5678L35.9 43.3678L35 43.5678L34.1 40.4678L35.5 40.0678C35.9 39.8678 36.2 39.8678 36.4 39.9678ZM36.4 41.3678C36.5 41.2678 36.5 41.1678 36.4 40.9678C36.4 40.8678 36.3 40.7678 36.2 40.6678C36.1 40.5678 35.9 40.5678 35.8 40.6678L35.3 40.7678L35.6 41.6678L36.1 41.5678C36.2 41.5678 36.4 41.4678 36.4 41.3678Z" fill="white"/>
<path d="M40.8 40.5676L40.5 40.6676L40.8 41.8676L39.9 42.0676L39.6 40.9676L39.2 41.0676L39 42.3676L38 42.6676L38.4 40.7676L37.1 39.5676L38 39.2676L39 40.3676L39.4 40.2676L39.1 38.9676L39.9 38.7676L40.3 39.9676L40.6 39.8676L40.9 38.4676L41.8 38.2676L41.4 39.9676L42.8 41.2676L41.8 41.5676L40.8 40.5676Z" fill="white"/>
<path d="M46.3 39.5676L46.7 40.8676L45.9 41.0676L45.7 40.4676L43.7 41.0676L43.9 41.6676L43.1 41.8676L42.7 40.5676H42.8C43 40.4676 43.1 40.3676 43.1 40.0676C43.1 39.7676 43 39.4676 42.9 38.9676L42.7 37.9676L45.2 37.2676L45.9 39.6676L46.3 39.5676ZM43.9 39.6676C43.9 39.8676 43.9 40.0676 43.9 40.2676L45.1 39.9676L44.6 38.2676L43.7 38.5676L43.8 38.8676C43.8 39.1676 43.8 39.4676 43.9 39.6676Z" fill="white"/>
<path d="M48.9 38.8676L47.6 39.2676L47.5 39.9676L46.6 40.2676L47.1 36.7676L48 36.5676L50.3 39.2676L49.4 39.5676L48.9 38.8676ZM48.5 38.3676L47.8 37.4676L47.7 38.5676L48.5 38.3676Z" fill="white"/>
<path d="M52.9 37.6676L53.1 38.3676L50.6 39.0676L49.7 35.9676L52.1 35.2676L52.3 35.9676L50.8 36.3676L50.9 36.9676L52.3 36.5676L52.5 37.1676L51.1 37.5676L51.3 38.1676L52.9 37.6676Z" fill="white"/>
<path d="M55.4 35.0678L54.4 35.3678L55.1 37.7678L54.3 38.0678L53.6 35.6678L52.6 35.8678L52.4 35.1678L55.2 34.4678L55.4 35.0678Z" fill="white"/>
</svg>